# xmcd CD database file
#
# Track frame offsets:
#	150
#	42322
#	78413
#	108902
#	148417
#	195287
#	219081
#	247728
#
# Disc length: 3967 seconds
#
# Revision: 0
# Processed by: cddbd v1.4PL0 Copyright (c) Steve Scherf et al.
# Submitted via: NeoAudio 9.9.9
#
DISCID=620f7d08
DTITLE=feigenwinter - oester - pfannmatter - because you knew
DYEAR=2002
DGENRE=Jazz
TTITLE0=how deep is the ocean
TTITLE1=au privave
TTITLE2=because you knew
TTITLE3=balloon
TTITLE4=everything i have is yours
TTITLE5=the tag
TTITLE6=this is new 
TTITLE7=stand
EXTD=YEAR: 2002
EXTT0=
EXTT1=
EXTT2=
EXTT3=
EXTT4=
EXTT5=
EXTT6=
EXTT7=
PLAYORDER=
